<svg width="70" height="70" viewBox="0 0 70 70" fill="none" xmlns="http://www.w3.org/2000/svg">
<path d="M21.8751 55.4166C19.8567 55.4166 18.1359 54.7069 16.7126 53.2874C15.2892 51.868 14.5795 50.1471 14.5834 48.1249H8.07924L8.71507 45.2083H15.3301C15.857 43.9113 16.7077 42.8574 17.8822 42.0466C19.0566 41.2377 20.3876 40.8333 21.8751 40.8333C23.3626 40.8333 24.6945 41.2377 25.8709 42.0466C27.0434 42.8574 27.8931 43.9113 28.4201 45.2083H41.8892L48.2942 17.4999H16.3567L16.4238 17.2141C16.5658 16.4519 16.9352 15.8228 17.5322 15.327C18.1291 14.8312 18.833 14.5833 19.6438 14.5833H51.9401L49.5776 24.7916H55.6413L63.5513 35.3383L61.0255 48.1249H57.6597C57.6597 50.1452 56.9499 51.866 55.5305 53.2874C54.111 54.7088 52.3902 55.4185 50.368 55.4166C48.3458 55.4146 46.6259 54.7049 45.2084 53.2874C43.7909 51.8699 43.0812 50.1491 43.0792 48.1249H29.1667C29.1667 50.1452 28.457 51.866 27.0376 53.2874C25.6181 54.7088 23.8973 55.4185 21.8751 55.4166ZM46.3372 38.6458H59.9026L60.4188 36.0499L54.183 27.7083H48.8805L46.3372 38.6458ZM47.5855 20.4224L48.2942 17.4999L41.8892 45.2083L42.598 42.2858L44.908 32.0891L47.5855 20.4224ZM4.88257 37.9108L5.61174 34.9941H18.6784L17.9492 37.9108H4.88257ZM10.7159 27.7141L11.4451 24.7974H27.4284L26.6992 27.7141H10.7159ZM21.8751 52.4999C23.0748 52.4999 24.1044 52.0712 24.9638 51.2137C25.8213 50.3542 26.2501 49.3246 26.2501 48.1249C26.2501 46.9252 25.8213 45.8956 24.9638 45.0362C24.1063 44.1767 23.0767 43.748 21.8751 43.7499C20.6734 43.7519 19.6438 44.1806 18.7863 45.0362C17.9288 45.8956 17.5001 46.9252 17.5001 48.1249C17.5001 49.3246 17.9288 50.3542 18.7863 51.2137C19.6458 52.0712 20.6753 52.4999 21.8751 52.4999ZM50.3709 52.4999C51.5706 52.4999 52.5992 52.0712 53.4567 51.2137C54.3142 50.3542 54.743 49.3246 54.743 48.1249C54.743 46.9252 54.3142 45.8956 53.4567 45.0362C52.5992 44.1767 51.5697 43.748 50.368 43.7499C49.1663 43.7519 48.1377 44.1806 47.2822 45.0362C46.4227 45.8956 45.993 46.9252 45.993 48.1249C45.993 49.3246 46.4217 50.3542 47.2792 51.2137C48.1387 52.0712 49.1692 52.4999 50.3709 52.4999Z" fill="black"/>
</svg>
