<svg width="70" height="70" viewBox="0 0 70 70" fill="none" xmlns="http://www.w3.org/2000/svg">
<path d="M24.7537 61.25H45.2462C47.0842 61.2499 48.8961 60.8156 50.5344 59.9825C52.1727 59.1493 53.5909 57.9409 54.6736 56.4556C55.7563 54.9704 56.4727 53.2504 56.7645 51.4357C57.0563 49.6211 56.9153 47.7631 56.3529 46.0133L51.377 30.5375C50.4323 27.5981 48.5789 25.0344 46.084 23.2156C43.589 21.3968 40.5812 20.4168 37.4937 20.4167H32.5062C29.4187 20.4168 26.4109 21.3968 23.9159 23.2156C21.421 25.0344 19.5677 27.5981 18.6229 30.5375L13.647 46.0133C13.0846 47.7631 12.9436 49.6211 13.2354 51.4357C13.5272 53.2504 14.2437 54.9704 15.3263 56.4556C16.409 57.9409 17.8272 59.1493 19.4655 59.9825C21.1038 60.8156 22.9157 61.2499 24.7537 61.25ZM43.75 8.75C41.8055 16.5278 38.8888 20.4167 35 20.4167C31.1111 20.4167 28.1944 16.5278 26.25 8.75H43.75Z" stroke="black" stroke-width="2" stroke-linecap="round" stroke-linejoin="round"/>
<path d="M40.8332 32.0834H33.5415C32.3812 32.0834 31.2684 32.5444 30.4479 33.3648C29.6274 34.1853 29.1665 35.2981 29.1665 36.4584C29.1665 37.6187 29.6274 38.7315 30.4479 39.552C31.2684 40.3725 32.3812 40.8334 33.5415 40.8334H36.4582C37.6185 40.8334 38.7313 41.2944 39.5518 42.1148C40.3722 42.9353 40.8332 44.0481 40.8332 45.2084C40.8332 46.3687 40.3722 47.4815 39.5518 48.302C38.7313 49.1225 37.6185 49.5834 36.4582 49.5834H29.1665M34.9998 29.1667V32.0834M34.9998 49.5834V52.5001" stroke="black" stroke-width="2" stroke-linecap="round" stroke-linejoin="round"/>
</svg>
