<svg width="70" height="70" viewBox="0 0 70 70" fill="none" xmlns="http://www.w3.org/2000/svg">
<path d="M44.7107 8.99829L31.4165 17.5315L32.764 18.2693L44.5916 10.6773L64.653 22.0408L53.1461 29.4268L53.7066 29.7336V30.6699L62.7195 24.8845L64.6112 25.9561L53.7065 32.9554V34.5581L62.543 28.8861L64.6112 30.0578L53.7065 37.0571V38.6598L62.543 32.9878L64.6112 34.1595L53.7065 41.1588V42.7615L67.3829 33.9828L63.9884 32.0603L67.3827 29.8814L63.9883 27.9586L67.3826 25.7797L64.1646 23.9568L67.4243 21.8643L44.7107 8.99829ZM48.9581 15.1151C46.0818 16.5583 42.2507 16.8025 39.5532 15.7143L34.28 19.0991L51.63 28.5969L56.6314 25.3868C54.6613 23.8315 54.8254 21.5108 57.0337 19.6897L48.9581 15.1151ZM31.104 20.166L21.4396 26.4679L39.98 37.141L40.1619 37.0248C40.5037 36.8047 40.9863 36.493 41.5622 36.1207C42.7133 35.3765 44.2368 34.3898 45.7559 33.4055C47.9436 31.9877 49.071 31.2562 50.1194 30.5762L31.104 20.166ZM46.8905 20.326H46.8909C47.3281 20.3287 47.729 20.4224 48.0284 20.5919C48.2026 20.6906 48.3378 20.8123 48.4261 20.9501C48.5144 21.0878 48.5542 21.239 48.5432 21.3949C48.5321 21.5509 48.4705 21.7085 48.3617 21.8588C48.253 22.0092 48.0993 22.1493 47.9095 22.2711C47.7197 22.3929 47.4974 22.4941 47.2554 22.5689C47.0134 22.6437 46.7563 22.6906 46.499 22.707C46.2416 22.7234 45.9889 22.7089 45.7553 22.6644C45.5218 22.6198 45.3119 22.5461 45.1378 22.4475C44.786 22.2482 44.6009 21.9594 44.6232 21.6445C44.6455 21.3297 44.8734 21.0146 45.2567 20.7685C45.4744 20.6288 45.7344 20.5164 46.0173 20.4398C46.3002 20.3631 46.5987 20.3242 46.8905 20.326ZM17.028 26.7675L2.61714 36.0172L5.83509 37.8401L2.57544 39.9325L5.96989 41.8552L2.57544 44.0342L5.96989 45.9569L2.57544 48.1359L25.2892 61.002L39.0026 52.1992V50.5969L25.4083 59.3228L5.347 47.9592L7.29593 46.7082L25.2892 56.9002L39.0026 48.0977V46.4953L25.4083 55.2213L5.347 43.8576L7.29593 42.6066L25.2892 52.7986L39.0026 43.9961V42.3938L25.4083 51.1197L5.347 39.756L7.16126 38.5912L25.3312 48.8834L39.0026 40.1077V39.4173L38.2534 38.986L25.4497 47.2042L5.38897 35.8407L18.3444 27.5249L17.0278 26.7671L17.028 26.7675ZM19.8252 28.378L13.4104 32.4953C15.3805 34.0504 15.2165 36.371 13.0082 38.1924L21.0839 42.767C23.96 41.3237 27.7909 41.0796 30.4884 42.1676L36.7726 38.1339L19.825 28.3779L19.8252 28.378ZM51.2455 32.779C50.1458 33.4923 49.1759 34.1219 47.0943 35.4707C45.6962 36.3771 44.2975 37.2828 42.8984 38.1877C42.3219 38.5603 41.8382 38.8727 41.4932 39.0945C41.4809 39.1027 41.4759 39.1054 41.4639 39.1132V50.8606L51.2457 44.2861L51.2455 32.779ZM23.7664 35.1689C24.2037 35.1716 24.6046 35.2654 24.9039 35.435C25.2557 35.6343 25.4408 35.9231 25.4185 36.238C25.3961 36.5528 25.1683 36.8679 24.785 37.114C24.4017 37.3599 23.8944 37.5167 23.3747 37.5498C22.855 37.5828 22.3655 37.4895 22.0137 37.2903C21.662 37.0911 21.4769 36.8022 21.4992 36.4874C21.5215 36.1725 21.7494 35.8574 22.1326 35.6114C22.3503 35.4717 22.6103 35.3593 22.8932 35.2827C23.1761 35.2061 23.4746 35.1672 23.7664 35.169V35.1689Z" fill="black"/>
</svg>
