<svg width="70" height="70" viewBox="0 0 70 70" fill="none" xmlns="http://www.w3.org/2000/svg">
<path d="M11.0658 35.0875C12.6321 27.2475 13.4166 23.3333 16.0037 20.8075C16.4819 20.3421 16.999 19.9186 17.5496 19.5417C20.5333 17.5 24.5291 17.5 32.5208 17.5H37.4879C45.4766 17.5 49.4696 17.5 52.4504 19.5417C53.0046 19.9228 53.5198 20.3457 53.9962 20.8104C56.5833 23.3333 57.3708 27.2504 58.9371 35.0875C61.1858 46.3342 62.3116 51.9575 59.7216 55.9417C59.253 56.6669 58.7086 57.331 58.0883 57.9338C54.6875 61.25 48.9562 61.25 37.4879 61.25H32.5208C21.0496 61.25 15.3154 61.25 11.9146 57.9308C11.2993 57.329 10.7525 56.6609 10.2841 55.9388C7.69414 51.9546 8.81998 46.3313 11.0716 35.0846L11.0658 35.0875Z" stroke="black" stroke-width="2.5"/>
<path d="M43.7499 29.1666C45.3607 29.1666 46.6666 27.8607 46.6666 26.2499C46.6666 24.6391 45.3607 23.3333 43.7499 23.3333C42.1391 23.3333 40.8333 24.6391 40.8333 26.2499C40.8333 27.8607 42.1391 29.1666 43.7499 29.1666Z" fill="black"/>
<path d="M26.2499 29.1666C27.8607 29.1666 29.1666 27.8607 29.1666 26.2499C29.1666 24.6391 27.8607 23.3333 26.2499 23.3333C24.6391 23.3333 23.3333 24.6391 23.3333 26.2499C23.3333 27.8607 24.6391 29.1666 26.2499 29.1666Z" fill="black"/>
<path d="M26.25 17.4999V14.5833C26.25 12.2626 27.1719 10.037 28.8128 8.39607C30.4538 6.75512 32.6794 5.83325 35 5.83325C37.3206 5.83325 39.5462 6.75512 41.1872 8.39607C42.8281 10.037 43.75 12.2626 43.75 14.5833V17.4999" stroke="black" stroke-width="1.5" stroke-linecap="round"/>
</svg>
