<?xml version="1.0" standalone="no"?>
<!DOCTYPE svg PUBLIC "-//W3C//DTD SVG 20010904//EN"
 "http://www.w3.org/TR/2001/REC-SVG-20010904/DTD/svg10.dtd">
<svg version="1.0" xmlns="http://www.w3.org/2000/svg"
 width="512.000000pt" height="512.000000pt" viewBox="0 0 512.000000 512.000000"
 preserveAspectRatio="xMidYMid meet">

<g transform="translate(0.000000,512.000000) scale(0.100000,-0.100000)"
fill="#000000" stroke="none">
<path d="M2260 5114 c-474 -41 -883 -229 -1209 -555 -507 -507 -675 -1192
-481 -1959 189 -749 763 -1638 1555 -2409 196 -190 246 -216 341 -176 41 17
351 319 523 509 l116 129 6 -115 c8 -133 25 -176 86 -218 l36 -25 323 -3 c338
-3 379 1 429 40 58 45 65 80 65 325 l0 222 238 3 c230 3 238 4 270 26 18 13
41 41 52 62 19 37 20 60 20 370 0 359 -2 371 -56 422 -48 44 -72 48 -305 48
l-219 0 0 144 c0 123 3 151 20 192 81 189 154 432 196 651 36 187 45 501 19
673 -62 424 -243 788 -540 1085 -292 293 -658 479 -1060 541 -93 14 -346 25
-425 18z m298 -354 c552 -60 1031 -406 1257 -910 94 -208 136 -412 136 -650 0
-228 -41 -460 -124 -705 l-34 -100 -286 -5 c-269 -5 -287 -6 -313 -26 -72 -54
-84 -104 -84 -365 l0 -189 -217 0 c-240 0 -276 -8 -321 -65 -40 -51 -43 -85
-40 -426 l3 -326 25 -35 c39 -58 73 -72 178 -78 l93 -5 -169 -185 c-93 -102
-190 -205 -216 -230 l-46 -44 -106 104 c-523 519 -991 1170 -1218 1692 -171
396 -244 721 -233 1042 6 181 25 292 77 447 76 229 189 415 359 593 331 344
805 517 1279 466z m1142 -2939 c0 -233 4 -257 48 -305 49 -52 72 -56 312 -56
l220 0 0 -115 0 -115 -197 0 c-211 -1 -268 -8 -316 -42 -59 -42 -67 -78 -67
-326 l0 -223 -117 3 -118 3 -5 237 c-5 219 -7 239 -26 264 -55 75 -91 83 -351
84 l-203 0 0 115 0 115 222 0 c205 0 225 2 265 21 29 14 52 35 68 63 25 42 25
46 25 269 l0 227 120 0 120 0 0 -219z"/>
<path d="M2248 4084 c-287 -52 -516 -226 -643 -489 -72 -148 -100 -308 -84
-471 13 -124 34 -196 89 -309 271 -548 1004 -660 1422 -217 153 162 248 397
248 612 0 130 -49 318 -111 429 -187 331 -559 511 -921 445z m314 -363 c85
-29 142 -67 212 -137 190 -191 206 -486 39 -706 -21 -27 -67 -72 -103 -99
-202 -152 -477 -139 -664 32 -120 109 -177 236 -179 394 -2 256 162 467 410
530 76 19 209 13 285 -14z"/>
</g>
</svg>
