<svg width="76" height="75" viewBox="0 0 76 75" fill="none" xmlns="http://www.w3.org/2000/svg">
<path d="M39.0859 0.781191C38.7952 0.503029 38.4083 0.347778 38.0059 0.347778C37.6035 0.347778 37.2166 0.503029 36.9258 0.781191L0.96875 35.1308C0.816045 35.2769 0.694558 35.4524 0.611638 35.6468C0.528718 35.8412 0.486088 36.0503 0.486328 36.2617L0.480469 68.4999C0.480469 70.1576 1.13895 71.7473 2.31105 72.9194C3.48315 74.0915 5.07287 74.7499 6.73047 74.7499H25.5C26.3288 74.7499 27.1237 74.4207 27.7097 73.8347C28.2958 73.2486 28.625 72.4538 28.625 71.6249V45.0624C28.625 44.648 28.7896 44.2506 29.0826 43.9576C29.3757 43.6646 29.7731 43.4999 30.1875 43.4999H45.8125C46.2269 43.4999 46.6243 43.6646 46.9174 43.9576C47.2104 44.2506 47.375 44.648 47.375 45.0624V71.6249C47.375 72.4538 47.7042 73.2486 48.2903 73.8347C48.8763 74.4207 49.6712 74.7499 50.5 74.7499H69.2617C70.9193 74.7499 72.509 74.0915 73.6811 72.9194C74.8532 71.7473 75.5117 70.1576 75.5117 68.4999V36.2617C75.512 36.0503 75.4693 35.8412 75.3864 35.6468C75.3035 35.4524 75.182 35.2769 75.0293 35.1308L39.0859 0.781191Z" fill="black"/>
</svg>
